<svg width="64" height="64" viewBox="0 0 64 64" fill="none" xmlns="http://www.w3.org/2000/svg">
  <circle cx="32" cy="32" r="30" fill="#FFF9E5"/>
  <circle cx="32" cy="32" r="22" fill="#FFD93D" stroke="#F5A623" stroke-width="1.6"/>
  <ellipse cx="24.5" cy="29" rx="2.2" ry="2.8" fill="#212529"/>
  <ellipse cx="39.5" cy="29" rx="2.2" ry="2.8" fill="#212529"/>
  <circle cx="25.2" cy="28" r="0.8" fill="#FFFFFF"/>
  <circle cx="40.2" cy="28" r="0.8" fill="#FFFFFF"/>
  <path d="M22 36 Q32 46 42 36" stroke="#212529" stroke-width="2.4" fill="none" stroke-linecap="round" stroke-linejoin="round"/>
  <ellipse cx="20" cy="35" rx="2.4" ry="1.6" fill="#F5A623" opacity="0.5"/>
  <ellipse cx="44" cy="35" rx="2.4" ry="1.6" fill="#F5A623" opacity="0.5"/>
  <path d="M52 16 L53.4 18.6 L56 20 L53.4 21.4 L52 24 L50.6 21.4 L48 20 L50.6 18.6 Z" fill="#0565F0"/>
  <path d="M12 48 L12.8 49.6 L14.4 50.4 L12.8 51.2 L12 52.8 L11.2 51.2 L9.6 50.4 L11.2 49.6 Z" fill="#0565F0"/>
</svg>
